<?xml version="1.0" encoding="iso-8859-1"?>
<!-- Generator: Adobe Illustrator 19.0.0, SVG Export Plug-In . SVG Version: 6.00 Build 0)  -->
<svg version="1.1" id="Layer_1" xmlns="http://www.w3.org/2000/svg" xmlns:xlink="http://www.w3.org/1999/xlink" x="0px" y="0px"
	 viewBox="0 0 512 512" style="enable-background:new 0 0 512 512;" xml:space="preserve">
<g>
	<path style="fill:#E8EDEE;" d="M361.931,494.345H150.069c0-19.5,15.81-35.31,35.31-35.31h141.241
		C346.121,459.034,361.931,474.845,361.931,494.345"/>
	<polygon style="fill:#B0B6BB;" points="317.793,459.034 194.207,459.034 211.862,388.414 300.138,388.414 	"/>
	<path style="fill:#38454F;" d="M512,317.793H0V48.552c0-17.064,13.833-30.897,30.897-30.897h450.207
		c17.064,0,30.897,13.833,30.897,30.897V317.793z"/>
	<path style="fill:#E8EDEE;" d="M481.103,388.414H30.897C13.833,388.414,0,374.581,0,357.517v-39.724h512v39.724
		C512,374.581,498.167,388.414,481.103,388.414"/>
	<g>
		<path style="fill:#ECBA16;" d="M158.892,273.655c-2.136,0-4.281-0.768-5.976-2.331c-3.584-3.302-3.814-8.889-0.512-12.473
			l102.4-111.228c3.302-3.584,8.889-3.822,12.473-0.521c3.584,3.302,3.814,8.889,0.512,12.473l-102.4,111.228
			C163.65,272.702,161.276,273.655,158.892,273.655"/>
		<path style="fill:#ECBA16;" d="M340.746,241.875c-2.26,0-4.52-0.865-6.241-2.587l-79.448-79.448
			c-3.452-3.452-3.452-9.031,0-12.482c3.452-3.452,9.031-3.452,12.482,0l79.448,79.448c3.452,3.452,3.452,9.031,0,12.482
			C345.265,241.01,343.006,241.875,340.746,241.875"/>
		<path style="fill:#ECBA16;" d="M340.746,241.875c-2.26,0-4.52-0.865-6.241-2.587c-3.452-3.452-3.452-9.031,0-12.482
			L461.622,99.689c3.443-3.452,9.031-3.452,12.482,0c3.452,3.452,3.452,9.039,0,12.482L346.987,239.288
			C345.265,241.01,343.006,241.875,340.746,241.875"/>
		<path style="fill:#ECBA16;" d="M467.862,176.552c-4.873,0-8.828-3.955-8.828-8.828v-61.793c0-4.873,3.955-8.828,8.828-8.828
			s8.828,3.955,8.828,8.828v61.793C476.69,172.597,472.735,176.552,467.862,176.552"/>
		<path style="fill:#ECBA16;" d="M467.862,114.759h-61.793c-4.873,0-8.828-3.955-8.828-8.828c0-4.873,3.955-8.828,8.828-8.828
			h61.793c4.873,0,8.828,3.955,8.828,8.828C476.69,110.804,472.735,114.759,467.862,114.759"/>
	</g>
	<g>
		<path style="fill:#EA6148;" d="M44.138,282.483c-4.873,0-8.828-3.955-8.828-8.828V79.448c0-4.873,3.955-8.828,8.828-8.828
			s8.828,3.955,8.828,8.828v194.207C52.966,278.528,49.011,282.483,44.138,282.483"/>
		<path style="fill:#EA6148;" d="M97.103,97.103H79.448c-4.873,0-8.828-3.955-8.828-8.828c0-4.873,3.955-8.828,8.828-8.828h17.655
			c4.873,0,8.828,3.955,8.828,8.828C105.931,93.149,101.976,97.103,97.103,97.103"/>
		<path style="fill:#EA6148;" d="M114.759,132.414h-35.31c-4.873,0-8.828-3.955-8.828-8.828s3.955-8.828,8.828-8.828h35.31
			c4.873,0,8.828,3.955,8.828,8.828S119.631,132.414,114.759,132.414"/>
		<path style="fill:#EA6148;" d="M97.103,167.724H79.448c-4.873,0-8.828-3.955-8.828-8.828c0-4.873,3.955-8.828,8.828-8.828h17.655
			c4.873,0,8.828,3.955,8.828,8.828C105.931,163.769,101.976,167.724,97.103,167.724"/>
		<path style="fill:#EA6148;" d="M114.759,203.034h-35.31c-4.873,0-8.828-3.955-8.828-8.828s3.955-8.828,8.828-8.828h35.31
			c4.873,0,8.828,3.955,8.828,8.828S119.631,203.034,114.759,203.034"/>
		<path style="fill:#EA6148;" d="M97.103,238.345H79.448c-4.873,0-8.828-3.955-8.828-8.828s3.955-8.828,8.828-8.828h17.655
			c4.873,0,8.828,3.955,8.828,8.828S101.976,238.345,97.103,238.345"/>
		<path style="fill:#EA6148;" d="M114.759,273.655h-35.31c-4.873,0-8.828-3.955-8.828-8.828S74.575,256,79.448,256h35.31
			c4.873,0,8.828,3.955,8.828,8.828S119.631,273.655,114.759,273.655"/>
	</g>
</g>
<g>
</g>
<g>
</g>
<g>
</g>
<g>
</g>
<g>
</g>
<g>
</g>
<g>
</g>
<g>
</g>
<g>
</g>
<g>
</g>
<g>
</g>
<g>
</g>
<g>
</g>
<g>
</g>
<g>
</g>
</svg>
