<?xml version="1.0" standalone="no"?><!DOCTYPE svg PUBLIC "-//W3C//DTD SVG 1.1//EN" "http://www.w3.org/Graphics/SVG/1.1/DTD/svg11.dtd"><svg class="icon" style="width: 5em; height: 5em;vertical-align: middle;fill: currentColor;overflow: hidden;" viewBox="0 0 1024 1024" version="1.1" xmlns="http://www.w3.org/2000/svg"><path d="M976.85504 179.216l-67.888-67.888a112 112 0 0 0-158.384 0l-11.312 11.312 158.384 158.4-90.512 90.496 67.888 67.888 101.824-101.824a112 112 0 0 0 0-158.384z" fill="#D8EFFC" /><path d="M810.90304 375.312l37.504-37.504-161.904-161.904-37.52 37.504-0.256-0.256-318.56 318.592 49.232 49.12 41.376 41.28L546.93504 496h271.536l56.56-56.56-64.128-64.128z m-481.68 157.376l0.944-0.944-19.728-19.68L44.50304 777.328a97.184 97.184 0 0 0 0 137.632 97.68 97.68 0 0 0 137.92 0l265.92-265.264-27.584-27.536-1.04 1.04-90.496-90.512z" fill="#F27070" /><path d="M750.56704 505.376a32 32 0 0 0-45.248 0l-113.136 113.136a32 32 0 1 0 45.248 45.248l113.136-113.136a31.968 31.968 0 0 0 0-45.248zM89.78304 824.912c-12.496 12.592-12.496 33.008 0 45.616s32.768 12.592 45.264 0a32.48 32.48 0 0 0 0-45.616 31.84 31.84 0 0 0-45.264 0z" fill="#D8EFFC" /><path d="M272.34304 556.064l44-44 132 132-44 44z" fill="#BD5555" /><path d="M986.42304 167.952l-68.336-66.96c-50.336-49.296-131.904-49.296-182.224 0l-11.392 11.168a15.52 15.52 0 0 0 0 22.32l148.048 145.056-29.28 28.8-143.168-143.168c-0.144-0.144-0.176-0.336-0.32-0.464a16.656 16.656 0 0 0-23.52 0l-47.008 47.008-0.064 0.096c-0.24 0.208-0.544 0.272-0.768 0.496-0.464 0.464-0.656 1.072-1.056 1.584L331.35104 510.336l-9.536-9.52a16.256 16.256 0 0 0-22.976 0L44.72704 754.64l-11.488 11.472a113.216 113.216 0 0 0-32.16 95.456c0.208 1.968 0.528 3.92 0.848 5.872l0.192 0.992c3.008 17.376 10.528 34.224 23.28 49.584a113.664 113.664 0 0 0 16.544 16.528c15.36 12.736 32.224 20.24 49.616 23.248l1.008 0.176c1.952 0.336 3.904 0.656 5.872 0.864a113.52 113.52 0 0 0 95.552-32.128l141.376-141.248-129.888 129.776 254.128-253.84a16.224 16.224 0 0 0 0-22.944l-25.712-25.68 100.88-100.88h153.232c8.816 0 15.968-7.104 15.968-15.888s-7.152-15.888-15.968-15.888h-159.6a15.936 15.936 0 0 0-11.904 4.592l-105.344 105.344-17.232-17.2 97.52-97.552a16.16 16.16 0 0 0-22.832-22.832l-97.552 97.536-17.024-16.992 286.096-286.496 199.344 199.328-23.888 23.408a15.52 15.52 0 0 0 0 22.32c6.288 6.16 16.48 6.16 22.768 0l45.568-44.64 102.496-100.416a124.496 124.496 0 0 0 0-178.56zM171.03104 903.76a81.264 81.264 0 0 1-114.816 0 81.072 81.072 0 0 1 0-114.704l211.76-211.536 114.752 114.784L171.03104 903.76z m196.72-311.184c31.712 31.664-32.288-32.272 57.424 57.344l-20.816 20.784-114.768-114.768 20.752-20.72 57.408 57.36z m295.504-367.856l25.376-25.376 131.632 131.616-25.6 25.184-131.408-131.424z m300.384 99.472l-101.488 99.424-44.944-44.928 100.88-99.136-11.392-11.152-11.392-11.152-136.672-133.904c37.744-36.992 98.944-36.992 136.672 0l68.336 66.96a93.344 93.344 0 0 1 0 133.888zM78.56704 813.776a47.872 47.872 0 0 0 0 67.76 48 48 0 0 0 67.824 0 47.872 47.872 0 0 0 0-67.76 47.968 47.968 0 0 0-67.824 0z m45.232 45.184a16 16 0 1 1-22.608-22.624 16 16 0 0 1 22.608 22.624z" fill="#2B3139" /><path d="M647.23904 461.44l69.392-69.392 138.768 138.768-69.392 69.392z" fill="#8094A1" /><path d="M854.80704 507.28l-114.16-114.16a32.288 32.288 0 0 0-45.664 0l-45.664 45.664a32.288 32.288 0 0 0 0 45.664l23.776 23.792-99.424 98.928a46.96 46.96 0 0 0 0 66.672 47.568 47.568 0 0 0 67.008 0l99.264-98.768 23.536 23.536a32.288 32.288 0 0 0 45.664 0l45.664-45.664a32.288 32.288 0 0 0 0-45.664z m-236.432 144.336a15.84 15.84 0 0 1-22.336 0 15.648 15.648 0 0 1 0-22.224l99.376-98.88 22.288 22.288-99.328 98.816z m167.952-75.84l-114.16-114.16 45.664-45.664 114.16 114.16-45.664 45.664z" fill="#2B3139" /></svg>