<?xml version="1.0" encoding="iso-8859-1"?>
<!-- Generator: Adobe Illustrator 19.0.0, SVG Export Plug-In . SVG Version: 6.00 Build 0)  -->
<svg version="1.1" id="Layer_1" xmlns="http://www.w3.org/2000/svg" xmlns:xlink="http://www.w3.org/1999/xlink" x="0px" y="0px"
	 viewBox="0 0 512 512" style="enable-background:new 0 0 512 512;" xml:space="preserve">
<g>
	<path style="fill:#486475;" d="M140.446,200.348h-18.011c-27.619,0-50.087-22.468-50.087-50.087V116.87
		c0-9.217,7.479-16.696,16.696-16.696s16.696,7.479,16.696,16.696v33.391c0,9.206,7.49,16.696,16.696,16.696h18.011
		c9.217,0,16.696,7.479,16.696,16.696S149.663,200.348,140.446,200.348z"/>
	<path style="fill:#486475;" d="M89.043,512c-9.217,0-16.696-7.479-16.696-16.696v-33.391c0-27.619,22.468-50.087,50.087-50.087
		h18.011c9.217,0,16.696,7.479,16.696,16.696c0,9.217-7.479,16.696-16.696,16.696h-18.011c-9.206,0-16.696,7.49-16.696,16.696
		v33.391C105.739,504.521,98.261,512,89.043,512z"/>
	<path style="fill:#486475;" d="M55.652,367.304c-9.217,0-16.696-7.479-16.696-16.696v-33.391c0-27.619,22.468-50.087,50.087-50.087
		h33.391c9.217,0,16.696,7.479,16.696,16.696c0,9.217-7.479,16.696-16.696,16.696H89.043c-9.206,0-16.696,7.49-16.696,16.696v33.391
		C72.348,359.826,64.869,367.304,55.652,367.304z"/>
</g>
<g>
	<path style="fill:#3C4D5C;" d="M389.565,200.348h-18.011c-9.217,0-16.696-7.479-16.696-16.696s7.479-16.696,16.696-16.696h18.011
		c9.206,0,16.696-7.49,16.696-16.696V116.87c0-9.217,7.479-16.696,16.696-16.696c9.217,0,16.696,7.479,16.696,16.696v33.391
		C439.652,177.88,417.184,200.348,389.565,200.348z"/>
	<path style="fill:#3C4D5C;" d="M422.957,512c-9.217,0-16.696-7.479-16.696-16.696v-33.391c0-9.206-7.49-16.696-16.696-16.696
		h-18.011c-9.217,0-16.696-7.479-16.696-16.696c0-9.217,7.479-16.696,16.696-16.696h18.011c27.619,0,50.087,22.468,50.087,50.087
		v33.391C439.652,504.521,432.174,512,422.957,512z"/>
	<path style="fill:#3C4D5C;" d="M456.348,367.304c-9.217,0-16.696-7.479-16.696-16.696v-33.391c0-9.206-7.49-16.696-16.696-16.696
		h-33.391c-9.217,0-16.696-7.479-16.696-16.696c0-9.217,7.479-16.696,16.696-16.696h33.391c27.619,0,50.087,22.468,50.087,50.087
		v33.391C473.043,359.826,465.565,367.304,456.348,367.304z"/>
	<path style="fill:#3C4D5C;" d="M222.609,75.717c-9.217,0-16.696-7.479-16.696-16.696V16.696C205.913,7.479,213.392,0,222.609,0
		s16.696,7.479,16.696,16.696v42.326C239.304,68.24,231.826,75.717,222.609,75.717z"/>
</g>
<path style="fill:#263138;" d="M289.391,75.717c-9.217,0-16.696-7.479-16.696-16.696V16.696C272.696,7.479,280.174,0,289.391,0
	c9.217,0,16.696,7.479,16.696,16.696v42.326C306.087,68.24,298.608,75.717,289.391,75.717z"/>
<path style="fill:#3C4D5C;" d="M312.521,148.25c-34.413-19.218-78.631-19.218-113.044,0c-9.539,5.341-21.661,0.17-24.337-10.522
	c-1.739-6.945-2.619-13.962-2.619-20.858c0-46.032,37.446-83.478,83.478-83.478s83.478,37.446,83.478,83.478
	c0,6.896-0.88,13.913-2.62,20.858C334.177,148.444,322.049,153.569,312.521,148.25z"/>
<path style="fill:#263138;" d="M312.521,148.25c9.528,5.318,21.655,0.195,24.337-10.522c1.74-6.945,2.62-13.962,2.62-20.858
	c0-46.032-37.446-83.478-83.478-83.478v100.445C275.657,133.837,295.315,138.642,312.521,148.25z"/>
<path style="fill:#E6563A;" d="M389.565,233.739h-267.13c-9.216,0-16.696,7.469-16.696,16.696v111.304
	c0,77.212,58.535,141.011,133.565,149.337C244.781,511.688,250.357,512,256,512c5.643,0,11.219-0.312,16.696-0.924
	c75.03-8.326,133.565-72.125,133.565-149.337V250.435C406.261,241.208,398.781,233.739,389.565,233.739z"/>
<path style="fill:#D9472B;" d="M406.261,361.739V250.435c0-9.227-7.48-16.696-16.696-16.696H256V512
	c5.643,0,11.219-0.312,16.696-0.924C347.726,502.751,406.261,438.951,406.261,361.739z"/>
<path style="fill:#486475;" d="M272.696,233.739v277.337C267.219,511.688,261.643,512,256,512c-5.643,0-11.219-0.312-16.696-0.924
	V233.739c0-9.216,7.48-16.696,16.696-16.696S272.696,224.523,272.696,233.739z"/>
<path style="fill:#3C4D5C;" d="M272.696,511.076V233.739c0-9.216-7.48-16.696-16.696-16.696V512
	C261.643,512,267.219,511.688,272.696,511.076z"/>
<path style="fill:#486475;" d="M406.261,256v-5.565c0-77.212-58.535-141.011-133.565-149.337
	c-5.476-0.612-11.053-0.924-16.696-0.924c-5.643,0-11.219,0.312-16.696,0.924c-75.03,8.326-133.565,72.125-133.565,149.337V256
	H406.261z"/>
<path style="fill:#3C4D5C;" d="M406.261,256v-5.565c0-77.212-58.535-141.011-133.565-149.337
	c-5.476-0.612-11.053-0.924-16.696-0.924V256H406.261z"/>
<g>
</g>
<g>
</g>
<g>
</g>
<g>
</g>
<g>
</g>
<g>
</g>
<g>
</g>
<g>
</g>
<g>
</g>
<g>
</g>
<g>
</g>
<g>
</g>
<g>
</g>
<g>
</g>
<g>
</g>
</svg>
